<?xml version="1.0" encoding="UTF-8"?>
<svg width="106px" height="40px" viewBox="0 0 106 40" version="1.1" xmlns="http://www.w3.org/2000/svg" xmlns:xlink="http://www.w3.org/1999/xlink">
    <!-- Generator: Sketch 52.4 (67378) - http://www.bohemiancoding.com/sketch -->
    <title>download-ios</title>
    <desc>Created with Sketch.</desc>
    <g id="Page-1" stroke="none" stroke-width="1" fill="none" fill-rule="evenodd">
        <g id="download-ios">
            <g id="Group" fill="#4853A7">
                <path d="M8.26265451,39.125 C7.96396422,39.125 7.67248924,39.1211 7.37614196,39.1143 C6.76223456,39.1061407 6.14976202,39.051625 5.5437474,38.9512 C4.97866935,38.8519282 4.43126061,38.6672645 3.91957727,38.4033 C3.4125858,38.1415227 2.95016882,37.7982729 2.55004091,37.3867 C2.14412125,36.9799753 1.80617458,36.508244 1.54959313,35.9902 C1.29018438,35.4687891 1.11065808,34.9098996 1.01726797,34.333 C0.916414766,33.7131149 0.861849002,33.0863132 0.8540412,32.458 C0.847825838,32.2471 0.839689008,31.5449 0.839689008,31.5449 L0.839689008,8.44434 C0.839689008,8.44434 0.848355222,7.75293 0.854090217,7.5498 C0.861566127,6.92248205 0.915814591,6.2966531 1.01636606,5.67773 C1.10992855,5.09925008 1.28959383,4.53874887 1.54914217,4.01563 C1.80478062,3.49794385 2.14085108,3.02586029 2.54432553,2.61768 C2.94734648,2.20562142 3.41124264,1.86060412 3.91909691,1.59521 C4.42960425,1.3320936 4.97597846,1.14873255 5.53991427,1.05127 C6.14791914,0.949836139 6.76251795,0.894996084 7.3785536,0.88721 L8.26313488,0.875 L98.4113708,0.875 L99.3065202,0.8877 C99.9169523,0.895099198 100.525968,0.949450006 101.128386,1.05029 C101.698031,1.14897507 102.250099,1.33361553 102.766438,1.59814 C103.783854,2.13298605 104.611706,2.97916295 105.133961,4.01807 C105.389395,4.53757618 105.566315,5.09350899 105.658718,5.667 C105.760467,6.29100138 105.817413,6.92174834 105.829101,7.55421 C105.831944,7.83741 105.831944,8.14161 105.831944,8.44435 C105.839689,8.81935 105.839689,9.17628 105.839689,9.53614 L105.839689,30.4648 C105.839689,30.8281 105.839689,31.1826 105.831944,31.54 C105.831944,31.8652 105.831944,32.1631 105.828121,32.4697 C105.816685,33.0908757 105.760689,33.7103642 105.660581,34.3232 C105.569105,34.9042612 105.390556,35.4675131 105.131197,35.9932 C104.872801,36.5056211 104.536795,36.9732662 104.135562,37.3789 C103.735074,37.7926846 103.271841,38.1379427 102.763673,38.4014 C102.248765,38.6673937 101.697509,38.8527403 101.128464,38.9512 C100.522496,39.052161 99.9099642,39.1066802 99.2960109,39.1143 C99.0088691,39.1211 98.7081985,39.125 98.4162529,39.125 L97.3535633,39.127 L8.26265451,39.125 Z" id="Path"></path>
            </g>
            <g id="Group" transform="translate(32.702290, 8.000000)" fill="#FFFFFF">
                <path d="M6.89385435,8.55462 L2.99692443,8.55462 L2.06106183,11.42762 L0.410490687,11.42762 L4.10160779,0.79837 L5.81655435,0.79837 L9.50767145,11.42762 L7.82889939,11.42759 L6.89385435,8.55462 Z M3.40048031,7.22889 L6.48948092,7.22889 L4.96672763,2.56628 L4.92411847,2.56628 L3.40048031,7.22889 Z" id="Shape" fill-rule="nonzero"></path>
                <path d="M17.4791817,7.55322 C17.4791817,9.96143 16.2394282,11.50867 14.3685495,11.50867 C13.4015096,11.5612649 12.4906094,11.0346581 12.0233144,10.15285 L11.9879382,10.15285 L11.9879382,13.99127 L10.4579423,13.99127 L10.4579423,3.678 L11.9388944,3.678 L11.9388944,4.967 L11.9670376,4.967 C12.4550964,4.09072523 13.3669805,3.56435262 14.3404159,3.597 C16.2321953,3.59694 17.4791817,5.1517 17.4791817,7.55322 Z M15.9065863,7.55322 C15.9065863,5.98422 15.1267136,4.95276 13.9368119,4.95276 C12.7678108,4.95276 11.9815131,6.00599 11.9815131,7.55322 C11.9815131,9.11467 12.7678108,10.16037 13.9368119,10.16037 C15.1267328,10.16037 15.9065766,9.1364 15.9065766,7.55322 L15.9065863,7.55322 Z" id="Shape" fill-rule="nonzero"></path>
                <path d="M25.6834841,7.55322 C25.6834841,9.96143 24.4433267,11.50867 22.5724479,11.50867 C21.605408,11.5612649 20.6945078,11.0346581 20.2272128,10.15285 L20.1918366,10.15285 L20.1918366,13.99127 L18.6618504,13.99127 L18.6618504,3.678 L20.1428024,3.678 L20.1428024,4.967 L20.1709456,4.967 C20.6590045,4.09072523 21.5708886,3.56435262 22.544324,3.597 C24.4360937,3.59694 25.6834841,5.1517 25.6834841,7.55322 Z M24.1104751,7.55322 C24.1104751,5.98422 23.3306024,4.95276 22.1407008,4.95276 C20.9716997,4.95276 20.185402,6.00599 20.185402,7.55322 C20.185402,9.11467 20.9716997,10.16037 22.1407008,10.16037 C23.3306121,10.16037 24.1104847,9.1364 24.1104847,7.55322 L24.1104751,7.55322 Z" id="Shape" fill-rule="nonzero"></path>
                <path d="M31.1047832,8.466 C31.2181447,9.52006 32.2030319,10.21218 33.5489139,10.21218 C34.8385095,10.21218 35.7663119,9.52006 35.7663119,8.56965 C35.7663119,7.74465 35.2067373,7.25065 33.8817655,6.91207 L32.5567937,6.58022 C30.6794803,6.10878 29.8079547,5.19598 29.8079547,3.71478 C29.8079547,1.88078 31.3451835,0.62114 33.5272053,0.62114 C35.6883266,0.62114 37.1692786,1.88083 37.2191208,3.71478 L35.6746589,3.71478 C35.582198,2.65403 34.7387963,2.01378 33.5063047,2.01378 C32.2738131,2.01378 31.4304018,2.6616 31.4304018,3.60449 C31.4304018,4.35596 31.9690278,4.79815 33.2868147,5.13668 L34.4132066,5.42423 C36.510818,5.93998 37.3815357,6.81599 37.3815357,8.37075 C37.3815357,10.35934 35.8587824,11.60482 33.4355524,11.60482 C31.1683026,11.60482 29.6375084,10.38859 29.5386128,8.46604 L31.1047832,8.466 Z" id="Path"></path>
                <path d="M40.6851211,1.84407 L40.6851211,3.67807 L42.1025537,3.67807 L42.1025537,4.93776 L40.6851211,4.93776 L40.6851211,9.21 C40.6851211,9.8737 40.9689289,10.183 41.5920229,10.183 C41.7602945,10.1799579 41.9282943,10.1676808 42.0953208,10.14622 L42.0953208,11.39839 C41.8151809,11.4528108 41.5304425,11.4774577 41.2455037,11.47195 C39.7363892,11.47195 39.1478922,10.88265 39.1478922,9.37971 L39.1478922,4.93771 L38.0641191,4.93771 L38.0641191,3.678 L39.1478922,3.678 L39.1478922,1.844 L40.6851211,1.84407 Z" id="Path"></path>
                <path d="M42.9226214,7.55322 C42.9226214,5.11492 44.3038795,3.58273 46.4577582,3.58273 C48.6188794,3.58273 49.9937029,5.11492 49.9937029,7.55322 C49.9937029,9.99822 48.626122,11.52371 46.4577582,11.52371 C44.2902119,11.52372 42.9226214,9.99821 42.9226214,7.55322 Z M48.4347751,7.55322 C48.4347751,5.8806 47.6975212,4.89341 46.4577678,4.89341 C45.2180144,4.89341 44.4807605,5.88812 44.4807605,7.55322 C44.4807605,9.23253 45.2180144,10.21222 46.4577678,10.21222 C47.6975212,10.21222 48.4347751,9.23253 48.4347751,7.55322 Z" id="Shape" fill-rule="nonzero"></path>
                <path d="M51.2551649,3.678 L52.7144084,3.678 L52.7144084,4.997 L52.7497557,4.997 C52.9532494,4.14789759 53.7015587,3.56350966 54.5426107,3.59688 C54.7189275,3.59623955 54.8947578,3.61614715 55.0668092,3.65623 L55.0668092,5.14412 C54.8442287,5.07340523 54.6120391,5.04093505 54.3793974,5.04799 C53.9295851,5.02901596 53.4942664,5.2153967 53.187747,5.55819258 C52.8812276,5.90098846 52.7341318,6.36595069 52.7850838,6.83099 L52.7850838,11.42757 L51.2551649,11.42757 L51.2551649,3.678 Z" id="Path"></path>
                <path d="M62.1210779,9.15145 C61.7733005,10.6660623 60.4017443,11.6798256 58.9115501,11.52372 C56.7431959,11.52372 55.3973139,10.01326 55.3973139,7.59 C55.3973139,5.15922 56.7504289,3.58273 58.8472324,3.58273 C60.9094676,3.58273 62.2062962,5.05557 62.2062962,7.40527 L62.2062962,7.95027 L56.9417853,7.95027 L56.9417853,8.0464 C56.8926403,8.62333932 57.0842572,9.19442667 57.4678963,9.61440057 C57.8515354,10.0343745 58.390222,10.2627581 58.9469359,10.24146 C59.6894078,10.3137889 60.3894147,9.87052591 60.6682786,9.15146 L62.1210779,9.15145 Z M56.9490121,6.83853 L60.6755116,6.83853 C60.7032786,6.32010931 60.5217703,5.81314778 60.1747171,5.43978652 C59.8276639,5.06642526 59.3465329,4.86051673 58.847242,4.87167 C58.3440055,4.86855601 57.8604206,5.07456278 57.5039687,5.44390333 C57.1475168,5.81324388 56.947732,6.31531623 56.9490121,6.83853 Z" id="Shape" fill-rule="nonzero"></path>
            </g>
            <g id="Group" transform="translate(32.702290, 23.000000)" fill="#FFFFFF">
                <path d="M0.41236626,1.04 L7.58900885,1.04 L7.58900885,1.82027 L4.17750595,1.82027 L4.17750595,2.92379 C4.66640519,3.15912333 5.15843679,3.41856333 5.65360076,3.70211 C6.14862366,3.98531 6.64941756,4.28934667 7.15598244,4.61422 L6.71404947,5.33102 C6.19273649,4.98532 5.72434351,4.68063333 5.30887053,4.41696 C4.89323725,4.15328667 4.51611252,3.93421 4.17749634,3.75973 L4.17749634,8.36813 L3.41713924,8.36813 L3.41713924,1.82031 L0.412375878,1.82031 L0.41236626,1.04 Z" id="Path"></path>
                <path d="M9.57606733,1.27441 L11.078449,1.27441 L11.078449,0.64453 L11.8209834,0.64453 L11.8209834,1.27441 L13.213014,1.27441 L13.213014,1.99121 L11.8209737,1.99121 L11.8209737,2.60156 L13.575567,2.60156 C13.5638263,2.30175333 13.5520855,1.98860333 13.5403447,1.66211 C13.5281615,1.33593667 13.5222142,0.993813333 13.5225027,0.63574 L14.2603145,0.63574 C14.2603145,1 14.2654795,1.34375 14.2758096,1.66699 C14.2861397,1.99023 14.2972553,2.30175333 14.3091563,2.60156 L16.2624064,2.60156 L16.2624064,3.32812 L14.344369,3.32812 C14.3678505,3.66503333 14.3980649,3.97265 14.4350121,4.25097 C14.4716482,4.53027 14.5049853,4.77929 14.5345809,4.99997 C14.5572414,5.07314276 14.5749755,5.14786668 14.5876548,5.2236 C14.5993988,5.29489 14.6111331,5.36813 14.6228771,5.44137 C14.7475271,5.16163622 14.8566653,4.87470975 14.9497557,4.582 C15.0469713,4.27926667 15.1354214,3.95472333 15.215106,3.60837 L15.8913989,3.92966 C15.6884512,4.83256397 15.3625139,5.70070551 14.9234592,6.50779 C14.9469376,6.56834 14.9727724,6.63079 15.000954,6.69334 C15.0286612,6.75584 15.057311,6.81638667 15.0869034,6.87498 C15.2724151,7.25779333 15.4197261,7.4492 15.5288363,7.4492 C15.6025768,7.4492 15.6880516,7.04653333 15.7852608,6.2412 L16.4347763,6.5996 C16.2492646,7.71776667 15.975306,8.27668667 15.6129005,8.27636 C15.3386308,8.27636 15.027725,8.02505667 14.6801831,7.52245 C14.6091196,7.40921137 14.5485724,7.28920475 14.4993586,7.16405 C14.1238735,7.64712259 13.6669815,8.05513389 13.1510047,8.36815 L12.731646,7.73924 C13.3128331,7.40181806 13.8046237,6.92003701 14.1631214,6.3369 C14.1100539,6.15623333 14.056358,5.97036 14.0020337,5.77928 C13.9475299,5.58787333 13.9010414,5.38800333 13.8625681,5.17967 C13.73468,4.56981462 13.6505383,3.95092538 13.6108374,3.32811 L9.1562084,3.32811 L9.1562084,2.60155 L11.0784682,2.60155 L11.0784682,1.9912 L9.57608656,1.9912 L9.57606733,1.27441 Z M13.2129948,6.5625 L13.2129948,7.252 C13.0185637,7.27641333 12.8219395,7.2992 12.6231224,7.32036 C12.4244656,7.34184 12.2230003,7.36528 12.0200537,7.3897 L12.0200537,8.34087 L11.2775194,8.34087 L11.2775194,7.48638 C10.9976134,7.51079333 10.7131644,7.53358 10.4241724,7.55474 C10.1358151,7.57622 9.84226397,7.60454 9.54500015,7.63774 L9.44778779,6.8936 C9.77466321,6.88093333 10.0883872,6.86335667 10.3889597,6.84087 C10.6895322,6.81743 10.985722,6.79659667 11.277529,6.77837 L11.277529,6.1582 L9.80150153,6.1582 L9.64652153,5.52832 C9.85298935,5.25215247 10.0322,4.95508223 10.1814444,4.6416 L9.40371664,4.6416 L9.40371664,3.93848 L10.4773232,3.93848 C10.5153684,3.85177354 10.5464705,3.76195241 10.5703131,3.66993 C10.5937947,3.58008333 10.6232267,3.48438 10.6586093,3.38282 L11.3832728,3.51661 C11.3541582,3.60161 11.3306702,3.67774 11.3128282,3.74415 C11.2944455,3.81150415 11.2692592,3.87664684 11.2376899,3.93849 L13.2482363,3.93849 L13.2482363,4.64162 L10.968098,4.64162 C10.8887276,4.80762 10.8084179,4.96095333 10.7271687,5.10162 C10.6459195,5.24228667 10.5699925,5.37868 10.4993876,5.5108 L11.2775867,5.5108 L11.2775867,4.9541 L12.0201211,4.9541 L12.0201211,5.51074 L13.1688756,5.51074 L13.1688756,6.1582 L12.0201018,6.1582 L12.0201018,6.69531 C12.2229907,6.67773 12.4244656,6.65625 12.6231705,6.63379 C12.8218017,6.61035 13.0184098,6.58658667 13.2129948,6.5625 Z M14.5078035,1.1035 L15.0690325,0.70897 C15.4075173,1.10015914 15.7220153,1.51308338 16.0106661,1.9453 L15.4405209,2.36718 C15.3254602,2.17772667 15.1906722,1.97655333 15.0361571,1.76366 C14.8811739,1.55078 14.7050592,1.33073333 14.5078131,1.10352 L14.5078035,1.1035 Z" id="Shape" fill-rule="nonzero"></path>
            </g>
            <g id="_Group_" transform="translate(8.656489, 8.000000)" fill="#FFFFFF">
                <g id="_Group_2">
                    <path d="M15.1670144,12.30068 C15.1880371,10.6042091 16.043477,9.03718611 17.4336293,8.14862 C16.552661,6.84051277 15.1299954,6.04087835 13.5948037,5.99094 C11.9796568,5.81468 10.4138423,6.99577 9.59079298,6.99577 C8.75181573,6.99577 7.48460198,6.00844 6.12002198,6.03763 C4.32459053,6.09793842 2.69133805,7.13352548 1.81782412,8.7655 C-0.042359084,12.11392 1.34517023,17.03497 3.12706992,19.74158 C4.01859206,21.06693 5.0605255,22.54738 6.42387435,22.49488 C7.75799313,22.43735 8.25626061,21.6104 9.86665603,21.6104 C11.4621046,21.6104 11.9295838,22.49488 13.320595,22.4615 C14.7521666,22.43734 15.6541246,21.13026 16.5143679,19.79236 C17.1549251,18.8479997 17.6478328,17.8042759 17.974833,16.69985 C16.2745607,15.9521813 15.1689988,14.2200343 15.1670144,12.30068 Z" id="_Path_"></path>
                    <path d="M12.539645,4.21089 C13.3201973,3.23668191 13.7047458,1.98450245 13.6116261,0.72027 C12.4191158,0.850490487 11.3175703,1.44304968 10.5264728,2.37988 C9.74530045,3.30418903 9.34956033,4.51343268 9.42641588,5.74127 C10.6349163,5.75420677 11.782362,5.19015322 12.539645,4.21089 Z" id="_Path_2"></path>
                </g>
            </g>
        </g>
    </g>
</svg>