<?xml version="1.0" encoding="UTF-8"?>
<svg width="106px" height="40px" viewBox="0 0 106 40" version="1.1" xmlns="http://www.w3.org/2000/svg" xmlns:xlink="http://www.w3.org/1999/xlink">
    <!-- Generator: Sketch 52.4 (67378) - http://www.bohemiancoding.com/sketch -->
    <title>download-android</title>
    <desc>Created with Sketch.</desc>
    <g id="Page-1" stroke="none" stroke-width="1" fill="none" fill-rule="evenodd">
        <g id="download-android">
            <g id="Group" fill="#4853A7">
                <path d="M8.29597551,39.125 C7.99728521,39.125 7.70581023,39.1211 7.40946295,39.1143 C6.79555556,39.1061407 6.18308301,39.051625 5.5770684,38.9512 C5.01199034,38.8519282 4.4645816,38.6672645 3.95289827,38.4033 C3.44590679,38.1415227 2.98348981,37.7982729 2.58336191,37.3867 C2.17744224,36.9799753 1.83949557,36.508244 1.58291412,35.9902 C1.32350537,35.4687891 1.14397907,34.9098996 1.05058897,34.333 C0.949735758,33.7131149 0.895169994,33.0863132 0.887362192,32.458 C0.88114683,32.2471 0.87301,31.5449 0.87301,31.5449 L0.87301,8.44434 C0.87301,8.44434 0.881676214,7.75293 0.887411209,7.5498 C0.89488712,6.92248205 0.949135583,6.2966531 1.04968705,5.67773 C1.14324955,5.09925008 1.32291482,4.53874887 1.58246317,4.01563 C1.83810161,3.49794385 2.17417207,3.02586029 2.57764652,2.61768 C2.98066747,2.20562142 3.44456363,1.86060412 3.9524179,1.59521 C4.46292524,1.3320936 5.00929945,1.14873255 5.57323526,1.05127 C6.18124013,0.949836139 6.79583894,0.894996084 7.41187459,0.88721 L8.29645587,0.875 L98.4446918,0.875 L99.3398412,0.8877 C99.9502733,0.895099198 100.559289,0.949450006 101.161707,1.05029 C101.731352,1.14897507 102.28342,1.33361553 102.799759,1.59814 C103.817175,2.13298605 104.645027,2.97916295 105.167282,4.01807 C105.422716,4.53757618 105.599636,5.09350899 105.692039,5.667 C105.793788,6.29100138 105.850734,6.92174834 105.862422,7.55421 C105.865265,7.83741 105.865265,8.14161 105.865265,8.44435 C105.87301,8.81935 105.87301,9.17628 105.87301,9.53614 L105.87301,30.4648 C105.87301,30.8281 105.87301,31.1826 105.865265,31.54 C105.865265,31.8652 105.865265,32.1631 105.861442,32.4697 C105.850006,33.0908757 105.79401,33.7103642 105.693902,34.3232 C105.602426,34.9042612 105.423877,35.4675131 105.164518,35.9932 C104.906122,36.5056211 104.570116,36.9732662 104.168883,37.3789 C103.768395,37.7926846 103.305162,38.1379427 102.796994,38.4014 C102.282086,38.6673937 101.73083,38.8527403 101.161785,38.9512 C100.555817,39.052161 99.9432852,39.1066802 99.3293319,39.1143 C99.0421901,39.1211 98.7415195,39.125 98.4495739,39.125 L97.3868843,39.127 L8.29597551,39.125 Z" id="Path"></path>
            </g>
            <g id="Group" transform="translate(35.000000, 9.000000)" fill="#FFFFFF">
                <path d="M4.125,0.29 L5.985,0.29 L10.11,11 L8.355,11 L7.35,8.24 L2.745,8.24 L1.74,11 L0,11 L4.125,0.29 Z M3.24,6.89 L6.855,6.89 L5.085,2.045 L5.025,2.045 L3.24,6.89 Z M14.24,3.035 C16.16,3.035 17.135,4.085 17.135,6.215 L17.135,11 L15.545,11 L15.545,6.35 C15.545,5.03 14.93,4.37 13.73,4.37 C13.28,4.37 12.875,4.52 12.545,4.85 C12.185,5.21 11.96,5.705 11.9,6.335 L11.9,11 L10.31,11 L10.31,3.245 L11.9,3.245 L11.9,4.205 C12.2,3.815 12.545,3.53 12.935,3.335 C13.325,3.125 13.76,3.035 14.24,3.035 Z M23.83,0.08 L25.42,0.08 L25.42,11 L23.935,11 L23.935,10.07 C23.395,10.82 22.585,11.21 21.535,11.21 C20.395,11.21 19.495,10.805 18.85,9.995 C18.25,9.245 17.95,8.27 17.95,7.085 C17.95,5.945 18.235,5 18.835,4.25 C19.465,3.44 20.35,3.035 21.46,3.035 C22.405,3.035 23.2,3.485 23.83,4.4 L23.83,0.08 Z M21.82,4.325 C21.04,4.325 20.455,4.58 20.08,5.12 C19.75,5.57 19.585,6.23 19.585,7.085 C19.585,7.94 19.735,8.6 20.05,9.08 C20.41,9.635 20.995,9.92 21.775,9.92 C22.465,9.92 22.99,9.635 23.38,9.095 C23.71,8.6 23.875,7.97 23.875,7.19 L23.875,7.055 C23.875,6.215 23.665,5.54 23.275,5.03 C22.885,4.55 22.405,4.325 21.82,4.325 Z M30.12,3.035 C30.51,3.035 30.855,3.095 31.125,3.23 L31.125,4.82 C30.735,4.7 30.36,4.655 30,4.655 C29.52,4.655 29.085,4.85 28.71,5.24 C28.305,5.66 28.11,6.215 28.11,6.89 L28.11,11 L26.52,11 L26.52,3.245 L28.11,3.245 L28.11,4.415 C28.305,3.995 28.56,3.68 28.86,3.47 C29.22,3.17 29.64,3.035 30.12,3.035 Z M34.97,3.035 C36.14,3.035 37.085,3.425 37.79,4.205 C38.48,4.97 38.84,5.945 38.84,7.13 C38.84,8.3 38.495,9.275 37.805,10.025 C37.085,10.805 36.14,11.21 34.97,11.21 C33.8,11.21 32.855,10.805 32.135,10.025 C31.445,9.275 31.1,8.3 31.1,7.13 C31.1,5.945 31.445,4.97 32.15,4.205 C32.855,3.425 33.8,3.035 34.97,3.035 Z M34.97,4.34 C34.235,4.34 33.665,4.625 33.26,5.21 C32.9,5.705 32.735,6.35 32.735,7.13 C32.735,7.91 32.9,8.54 33.26,9.035 C33.665,9.605 34.235,9.905 34.97,9.905 C35.705,9.905 36.275,9.605 36.695,9.035 C37.055,8.525 37.235,7.895 37.235,7.13 C37.235,6.35 37.055,5.705 36.695,5.21 C36.275,4.625 35.705,4.34 34.97,4.34 Z M40.7800001,0.14 C41.0950001,0.14 41.3650001,0.23 41.5750001,0.44 C41.7850001,0.635 41.8900001,0.89 41.8900001,1.205 C41.8900001,1.52 41.7700001,1.775 41.5600001,1.985 C41.3500001,2.18 41.0800001,2.285 40.7800001,2.285 C40.4650001,2.285 40.2100001,2.18 40.0000001,1.985 C39.7900001,1.775 39.6850001,1.505 39.6850001,1.205 C39.6850001,0.89 39.7900001,0.635 40.0000001,0.44 C40.2100001,0.23 40.4650001,0.14 40.7800001,0.14 Z M39.9850001,3.245 L41.5750001,3.245 L41.5750001,11 L39.9850001,11 L39.9850001,3.245 Z M48.6000001,0.08 L50.1900001,0.08 L50.1900001,11 L48.7050001,11 L48.7050001,10.07 C48.1650001,10.82 47.3550001,11.21 46.3050001,11.21 C45.1650001,11.21 44.2650001,10.805 43.6200001,9.995 C43.0200001,9.245 42.7200001,8.27 42.7200001,7.085 C42.7200001,5.945 43.0050001,5 43.6050001,4.25 C44.2350001,3.44 45.1200001,3.035 46.2300001,3.035 C47.1750001,3.035 47.9700001,3.485 48.6000001,4.4 L48.6000001,0.08 Z M46.5900001,4.325 C45.8100001,4.325 45.2250001,4.58 44.8500001,5.12 C44.5200001,5.57 44.3550001,6.23 44.3550001,7.085 C44.3550001,7.94 44.5050001,8.6 44.8200001,9.08 C45.1800001,9.635 45.7650001,9.92 46.5450001,9.92 C47.2350001,9.92 47.7600001,9.635 48.1500001,9.095 C48.4800001,8.6 48.6450001,7.97 48.6450001,7.19 L48.6450001,7.055 C48.6450001,6.215 48.4350001,5.54 48.0450001,5.03 C47.6550001,4.55 47.1750001,4.325 46.5900001,4.325 Z" id="Android-APK"></path>
                <path d="M24,15.00426 L31.46143,15.00426 L31.46143,15.78453 L27.91455,15.78453 L27.91455,16.88805 C28.42285,17.1233833 28.9344067,17.3828233 29.44922,17.66637 C29.9638867,17.94957 30.4845533,18.2536067 31.01122,18.57848 L30.55175,19.29528 C30.00975,18.94958 29.52277,18.6448933 29.09081,18.38122 C28.6586833,18.1175467 28.2665933,17.89847 27.91454,17.72399 L27.91454,22.33239 L27.12401,22.33239 L27.12401,15.78457 L24.00001,15.78457 L24,15.00426 Z M33.52734,15.23867 L35.08934,15.23867 L35.08934,14.60879 L35.86134,14.60879 L35.86134,15.23867 L37.30861,15.23867 L37.30861,15.95547 L35.86133,15.95547 L35.86133,16.56582 L37.68555,16.56582 C37.6733433,16.2660133 37.6611367,15.9528633 37.64893,15.62637 C37.6362633,15.3001967 37.63008,14.9580733 37.63038,14.6 L38.39747,14.6 C38.39747,14.96426 38.40284,15.30801 38.41358,15.63125 C38.42432,15.95449 38.4358767,16.2660133 38.44825,16.56582 L40.47901,16.56582 L40.47901,17.29238 L38.48486,17.29238 C38.5092733,17.6292933 38.5406867,17.93691 38.5791,18.21523 C38.61719,18.49453 38.65185,18.74355 38.68262,18.96423 C38.7061797,19.0374028 38.7246176,19.1121267 38.7378,19.18786 C38.75001,19.25915 38.76221,19.33239 38.77442,19.40563 C38.9040164,19.1258962 39.0174856,18.8389697 39.11427,18.54626 C39.2153433,18.2435267 39.3073033,17.9189833 39.39015,17.57263 L40.09328,17.89392 C39.8822788,18.796824 39.5434075,19.6649655 39.08693,20.47205 C39.11134,20.5326 39.1382,20.59505 39.1675,20.6576 C39.1963067,20.7201 39.2260933,20.7806467 39.25686,20.83924 C39.4497333,21.2220533 39.60289,21.41346 39.71633,21.41346 C39.7929967,21.41346 39.8818633,21.0107933 39.98293,20.20546 L40.65822,20.56386 C40.4653467,21.6820267 40.1805167,22.2409467 39.80373,22.24062 C39.5185767,22.24062 39.1953333,21.9893167 38.834,21.48671 C38.7601166,21.3734714 38.6971667,21.2534648 38.646,21.12831 C38.2556146,21.6113826 37.780592,22.0193939 37.24414,22.33241 L36.80814,21.7035 C37.4123901,21.3660781 37.9236963,20.884297 38.29642,20.30116 C38.2412467,20.1204933 38.18542,19.93462 38.12894,19.74354 C38.0722733,19.5521333 38.02394,19.3522633 37.98394,19.14393 C37.850977,18.5340746 37.7634964,17.9151854 37.72222,17.29237 L33.09082,17.29237 L33.09082,16.56581 L35.08936,16.56581 L35.08936,15.95546 L33.52736,15.95546 L33.52734,15.23867 Z M37.30859,20.52676 L37.30859,21.21626 C37.1064433,21.2406733 36.9020167,21.26346 36.69531,21.28462 C36.48877,21.3061 36.27931,21.32954 36.06831,21.35396 L36.06831,22.30513 L35.29631,22.30513 L35.29631,21.45064 C35.0052967,21.4750533 34.70956,21.49784 34.4091,21.519 C34.1093,21.54048 33.8041,21.5688 33.49504,21.602 L33.39397,20.85786 C33.7338167,20.8451933 34.05999,20.8276167 34.37249,20.80513 C34.68499,20.78169 34.9929333,20.7608567 35.29632,20.74263 L35.29632,20.12246 L33.76172,20.12246 L33.60059,19.49258 C33.815251,19.2164125 34.0015732,18.9193422 34.15674,18.60586 L33.34815,18.60586 L33.34815,17.90274 L34.46436,17.90274 C34.503915,17.8160335 34.5362512,17.7262124 34.56104,17.63419 C34.5854533,17.5443433 34.6160533,17.44864 34.65284,17.34708 L35.40626,17.48087 C35.37599,17.56587 35.35157,17.642 35.33302,17.70841 C35.3139078,17.7757642 35.287722,17.8409068 35.2549,17.90275 L37.34523,17.90275 L37.34523,18.60588 L34.97461,18.60588 C34.89209,18.77188 34.8085933,18.9252133 34.72412,19.06588 C34.6396467,19.2065467 34.5607067,19.34294 34.4873,19.47506 L35.29638,19.47506 L35.29638,18.91836 L36.06838,18.91836 L36.06838,19.475 L37.26272,19.475 L37.26272,20.12246 L36.06836,20.12246 L36.06836,20.65957 C36.2793,20.64199 36.48877,20.62051 36.69536,20.59805 C36.9018733,20.57461 37.1062833,20.5508467 37.30859,20.52676 Z M38.65478,15.06776 L39.23828,14.67323 C39.5901967,15.0644191 39.9171748,15.4773434 40.21728,15.90956 L39.62451,16.33144 C39.5048833,16.1419867 39.3647467,15.9408133 39.2041,15.72792 C39.0429667,15.51504 38.8598633,15.2949933 38.65479,15.06778 L38.65478,15.06776 Z" id="Combined-Shape"></path>
                <path d="M3.75,15 L4.99,15 L7.74,22.14 L6.57,22.14 L5.9,20.3 L2.83,20.3 L2.16,22.14 L1,22.14 L3.75,15 Z M3.16,19.4 L5.57,19.4 L4.39,16.17 L4.35,16.17 L3.16,19.4 Z M8.44,15 L11.4,15 C13.1,15 13.95,15.72 13.95,17.17 C13.95,18.63 13.09,19.36 11.38,19.36 L9.53,19.36 L9.53,22.14 L8.44,22.14 L8.44,15 Z M9.53,15.93 L9.53,18.43 L11.31,18.43 C11.85,18.43 12.24,18.33 12.49,18.13 C12.73,17.93 12.86,17.61 12.86,17.17 C12.86,16.73 12.73,16.41 12.48,16.23 C12.23,16.03 11.84,15.93 11.31,15.93 L9.53,15.93 Z M19.5,15 L20.88,15 L17.72,18.07 L21.34,22.14 L19.88,22.14 L16.98,18.78 L16.05,19.67 L16.05,22.14 L14.96,22.14 L14.96,15 L16.05,15 L16.05,18.45 L19.5,15 Z" id="APK"></path>
            </g>
            <g id="android" transform="translate(9.000000, 8.000000)" fill="#FFFFFF">
                <path d="M14.500032,9 C14.7760316,9 15,9.22303055 15,9.50001406 L15,17.5000047 C15,18.7080165 14.1399856,19.718029 12.9999872,19.9500127 L12.9999872,22.5000047 C12.9999872,23.3270177 12.3270038,24 11.4999893,24 C10.6729749,24 9.99999148,23.3270177 9.99999148,22.5000047 L9.99999148,20.0000281 L9.00000852,20.0000281 L9.00000852,22.5000047 C9.00000852,23.3270177 8.3270251,24 7.50001065,24 C6.6729962,24 6.00001278,23.3270177 6.00001278,22.5000047 L6.00001278,19.9500127 C4.8600144,19.7169978 4,18.7080165 4,17.5000047 L4,9.50001406 C4,9.22401492 4.22401531,9 4.50001491,9 L14.500032,9 Z M12.1169572,2.6640907 C13.8329548,3.59591585 14.9999531,5.41452849 15,7.50008656 C15,7.77603016 14.7759847,8 14.4999851,8 L4.50001491,8 C4.22401531,8 4,7.77603016 4,7.50008656 C4,5.41452849 5.16699834,3.59591585 6.88398028,2.6640907 L6.04098148,0.697477062 C5.93195038,0.444497522 6.04895021,0.150557606 6.30296548,0.0415955034 C6.55398075,-0.0693818121 6.85098033,0.0496094903 6.95898017,0.304557377 L7.80390085,2.27215519 C8.33893134,2.09819075 8.90893053,2.00122619 9.50091406,2.00122619 C10.0929445,2.00122619 10.6629437,2.09819075 11.1979273,2.27215519 L12.0409261,0.304557377 C12.1489259,0.0496094903 12.4459255,-0.0683976383 12.6969408,0.0415955034 C12.950956,0.150604471 13.0689402,0.443513349 12.959956,0.697477062 L12.1169572,2.6640907 Z M7.49996378,6.00039311 C7.77596339,6.00039311 7.99997869,5.77642326 7.99997869,5.50047967 C7.99997869,5.22453607 7.77596339,5.00056623 7.49996378,5.00056623 C7.22396417,5.00056623 6.99994886,5.22453607 6.99994886,5.50047967 C6.99994886,5.77642326 7.22396417,6.00039311 7.49996378,6.00039311 Z M11.4999893,6.00039311 C11.775989,6.00039311 12.0000043,5.77642326 12.0000043,5.50047967 C12.0000043,5.22453607 11.775989,5.00056623 11.4999893,5.00056623 C11.2239897,5.00056623 10.9999744,5.22453607 10.9999744,5.50047967 C10.9999744,5.77642326 11.2239897,6.00039311 11.4999893,6.00039311 Z M17.5,9 C18.3270156,9 19,9.67302994 19,10.4999971 L19,15.5000029 C19,16.3270169 18.3270156,17 17.5,17 C16.6729844,17 16,16.3270169 16,15.5000029 L16,10.4999971 C16,9.67298306 16.6729844,9 17.5,9 Z M1.5,9 C2.32701563,9 3,9.67302994 3,10.4999971 L3,15.5000029 C3,16.3270169 2.32701563,17 1.5,17 C0.672984375,17 0,16.3270169 0,15.5000029 L0,10.4999971 C0,9.67298306 0.672984375,9 1.5,9 Z" id="Combined-Shape"></path>
            </g>
        </g>
    </g>
</svg>